<?xml version="1.0" encoding="iso-8859-1"?>
<!-- Uploaded to: SVG Repo, www.svgrepo.com, Generator: SVG Repo Mixer Tools -->
<svg fill="#000000" height="800px" width="800px" version="1.1" id="Capa_1" xmlns="http://www.w3.org/2000/svg" xmlns:xlink="http://www.w3.org/1999/xlink" 
	 viewBox="0 0 488.3 488.3" xml:space="preserve">
<g>
	<g>
		<path d="M431.9,110.7h-79.6l-2-8.5C342.6,69.1,313.5,46,279.5,46h-70.7c-34,0-63.1,23.1-70.8,56.2l-2,8.5H56.5
			C25.3,110.7,0,136.1,0,167.2v215.7c0,32.8,26.7,59.4,59.4,59.4h369.5c32.8,0,59.4-26.7,59.4-59.4V167.2
			C488.4,136,463,110.7,431.9,110.7z M464.4,382.9c0,19.5-15.9,35.4-35.4,35.4H59.5c-19.5,0-35.4-15.9-35.4-35.4V167.2
			c0-17.9,14.6-32.5,32.5-32.5h89.1c5.6,0,10.4-3.8,11.7-9.3l4.1-17.7c5.2-22.2,24.7-37.6,47.4-37.6h70.7
			c22.7,0,42.2,15.5,47.4,37.6l4.1,17.7c1.3,5.4,6.1,9.3,11.7,9.3h89.1c17.9,0,32.5,14.6,32.5,32.5V382.9L464.4,382.9z"/>
		<circle cx="82.5" cy="187" r="11.9"/>
		<path d="M295.5,188.4c-5.7-3.3-13.1-1.4-16.4,4.4c-3.3,5.7-1.4,13.1,4.4,16.4l0,0c1.9,1.1,4,1.6,6,1.6c4.2,0,8.2-2.1,10.4-6
			C303.2,199,301.2,191.7,295.5,188.4z"/>
		<path d="M176.2,316.2c-3.3-5.8-10.7-7.7-16.4-4.4c-5.7,3.3-7.7,10.7-4.4,16.4c2.2,3.8,6.3,6,10.4,6c2,0,4.1-0.5,6-1.6
			C177.5,329.3,179.5,322,176.2,316.2L176.2,316.2z"/>
		<path d="M171.9,221.4c-5.7-3.3-13.1-1.4-16.4,4.4c-3.3,5.7-1.4,13.1,4.4,16.4c1.9,1.1,4,1.6,6,1.6c4.1,0,8.2-2.1,10.4-6
			C179.6,232.1,177.7,224.7,171.9,221.4z"/>
		<path d="M165.8,277c0-6.6-5.4-12-12-12s-12,5.4-12,12s5.4,12,12,12l0,0C160.4,289,165.8,283.6,165.8,277z"/>
		<path d="M244.1,355.5c-6.6,0-12,5.4-12,12s5.4,12,12,12l0,0c6.6,0,12-5.4,12-12C256,360.9,250.7,355.5,244.1,355.5z"/>
		<path d="M283.3,345.1c-5.7,3.3-7.7,10.6-4.4,16.4c2.2,3.8,6.3,6,10.4,6c2,0,4.1-0.5,6-1.6c5.7-3.3,7.7-10.6,4.4-16.4
			C296.4,343.8,289,341.8,283.3,345.1z"/>
		<path d="M193,188.3c-5.7,3.3-7.7,10.7-4.4,16.4c2.2,3.9,6.3,6,10.4,6c2,0,4.1-0.5,6-1.6c5.7-3.3,7.7-10.7,4.4-16.4
			S198.8,185,193,188.3z"/>
		<path d="M204.9,345L204.9,345c-5.7-3.3-13.1-1.4-16.4,4.4c-3.3,5.7-1.4,13.1,4.3,16.4l0,0c1.9,1.1,4,1.6,6,1.6
			c4.1,0,8.2-2.1,10.4-6C212.6,355.6,210.6,348.3,204.9,345z"/>
		<path d="M328.5,312.1c-5.7-3.3-13.1-1.4-16.4,4.3c-3.3,5.7-1.4,13.1,4.3,16.4c1.9,1.1,4,1.6,6,1.6c4.1,0,8.2-2.1,10.4-6
			C336.1,322.8,334.2,315.4,328.5,312.1z"/>
		<path d="M334.6,265.1c-6.6,0-12,5.3-12,12c0,0.1,0,0.2,0,0.2c0,6.6,5.3,12,12,12l0,0c6.6,0,12-5.4,12-12l0,0c0-0.1,0-0.1,0-0.2
			l0,0C346.6,270.5,341.2,265.1,334.6,265.1z"/>
		<path d="M322.5,243.9c2,0,4.1-0.5,6-1.6c5.7-3.3,7.7-10.7,4.4-16.4c-3.3-5.7-10.7-7.7-16.4-4.4c-5.7,3.3-7.7,10.7-4.4,16.4
			C314.4,241.7,318.4,243.9,322.5,243.9z"/>
		<path d="M244.2,174.7c-6.6,0-12,5.4-12,12s5.4,12,12,12l0,0c6.6,0,12-5.4,12-12C256.2,180,250.9,174.7,244.2,174.7z"/>
	</g>
</g>
</svg>