<?xml version="1.0" encoding="utf-8"?>
<!-- Svg Vector Icons : http://www.onlinewebfonts.com/icon -->
<!DOCTYPE svg PUBLIC "-//W3C//DTD SVG 1.1//EN" "http://www.w3.org/Graphics/SVG/1.1/DTD/svg11.dtd">
<svg version="1.1" xmlns="http://www.w3.org/2000/svg" xmlns:xlink="http://www.w3.org/1999/xlink" x="0px" y="0px" viewBox="0 0 1000 1000" enable-background="new 0 0 1000 1000" xml:space="preserve">
<metadata> Svg Vector Icons : http://www.onlinewebfonts.com/icon </metadata>
<g><g transform="translate(0.000000,511.000000) scale(0.100000,-0.100000)"><path d="M717.8,3345.4c-155-42.1-252.7-99.5-369.4-218.2c-128.3-128.3-202.9-277.6-229.7-455.6c-24.9-174.2-24.9-4971,0-5124.2c57.4-350.3,331.1-624,681.4-681.4c153.1-24.9,8246.2-24.9,8399.3,0c350.3,57.4,624,331.2,681.4,681.4c26.8,158.9,24.9,4974.9-1.9,5135.7c-51.7,325.4-283.3,578.1-601,662.3c-99.5,24.9-597.2,28.7-4287.7,26.8C1456.7,3372.2,802,3368.4,717.8,3345.4z M1745.7,1134.6V522h402h402v612.5v612.5h411.5h411.5V110.5v-1636.6h-411.5h-411.5v612.5V-301h-402h-402v-612.5v-612.5h-421.1H903.5V110.5v1636.6h421.1h421.1V1134.6z M5095.4,1674.4c256.5-88.1,455.6-212.5,648.9-405.8c195.2-193.3,319.6-390.5,405.8-650.8c53.6-157,63.2-216.3,70.8-434.5c11.5-317.7-32.5-534.1-162.7-792.5c-212.5-424.9-553.2-712.1-1014.5-853.7c-162.7-49.8-187.6-51.7-717.8-59.3l-551.3-7.7V110.5v1640.4l570.4-7.7l568.5-5.7L5095.4,1674.4z M8148.5,1718.4c202.9-51.7,415.4-170.4,560.8-312c155.1-153.1,250.8-302.4,321.6-511.1c44-130.2,51.7-185.7,51.7-363.7c1.9-415.4-166.5-752.3-505.3-1003l-67-49.8l273.7-469c151.2-258.4,283.3-484.3,294.8-501.5c17.2-32.5-9.6-34.5-465.1-34.5h-484.3L7892-1114.6L7652.8-703h-101.4h-101.4v-411.5v-411.5h-411.5h-411.5V110.5v1636.6h704.4C7895.9,1747.1,8058.6,1741.4,8148.5,1718.4z"/><path d="M4597.8,114.3v-815.4l72.7,9.6c449.8,61.3,761.8,438.3,725.5,876.7c-15.3,172.3-109.1,369.4-235.4,497.7c-111,109.1-317.8,214.4-461.3,233.5l-101.4,13.4V114.3z"/><path d="M7449.9,522v-402h225.9c262.2,0,344.6,19.1,436.4,99.5c224,197.2,174.2,541.7-97.6,668c-61.3,28.7-124.4,36.4-319.7,36.4h-245V522z"/></g></g>
</svg>